<svg width="16" height="16" viewBox="0 0 16 16" fill="none" xmlns="http://www.w3.org/2000/svg">
    <path fill-rule="evenodd" clip-rule="evenodd"
        d="M6.4399 10.0633c-.09199.3909.49496.4148.57554.0592.0342-.17787-.09199-.30827-.25317-.30827-.14978 0-.29917.11864-.32237.24907zm-.11478.8769c.09199-.4621-.27637-.806-.71352-.7821-.41397.0356-.75917.3317-.82795.6991-.10378.4743.276.8182.71318.7826.4139-.0239.75909-.32.82829-.6996zm3.41715-2.92765c-1.42716-.92454-3.33657-.9365-4.87846-.41477-.77055.26065-1.58751.75863-2.07068 1.38685-.56375.73479-.79375 1.68297-.20718 2.59597.86295 1.3273 3.07199 1.8847 5.10805 1.3987 1.19669-.2848 2.4736-.9721 3.0145-2.1574.5065-1.09076-.0463-2.20465-.96623-2.80935zm-2.8534.46215c.85116.15431 1.5301.69951 1.64491 1.6121.21859 1.7191-1.95549 3.0938-3.62394 2.1573-.75917-.4148-1.25372-1.4695-.66715-2.52468.39119-.71124 1.13891-1.17343 1.93266-1.25648.24176-.03563.48314-.02352.71352.01176zm5.49923-.34351c-.2414-.16607-.4836-.26084-.7706-.35562-.2767-.09497-.3224-.14236-.2186-.42691.0685-.20154.1266-.37918.1495-.61631.1265-1.06697-.7132-1.38692-1.6685-1.30387-.44817.03544-.82799.15412-1.21955.28456-.25321.08282-.72494.35542-.82834.18955-.0574-.08306.0118-.2135.03462-.29632.14939-.58083.20718-1.38688-.34519-1.74254-.40257-.26084-1.10433-.18954-1.5301-.03566C3.69032 4.63419.181527 8.04817.894705 10.7624c.161185.6165.494965 1.0787.816915 1.4108.95494.9839 2.43905 1.5291 3.80796 1.7304 1.00093.1425 2.03647.1304 3.03778-.0592 1.63304-.3082 3.19784-1.0669 4.21054-2.4181.6785-.9008.8971-2.18083 0-2.99903-.1267-.11825-.2414-.20131-.3798-.29608zm1.4609-3.41398c.5865 1.37497-.0575 1.99147.1494 2.46557.173.39109.6903.42672.9207.13041.1722-.22518.2642-.88907.276-1.18535.0574-1.12603-.3225-2.12187-1.012-2.89229-.8861-.99563-2.0482-1.33953-3.3251-1.20909-.2304.02367-.4144.05934-.541.2015-.2988.33195-.1494.81801.265.88911.3452.05914 1.2077-.21346 2.174.36737.449.28456.8744.73499 1.093 1.23277zm-3.1058-.52149c-.2532.31999-.0692.80605.3679.79409.2643-.01176.3225-.04739.6095.04739.276.09493.5637.41496.5755.79433.0228.24889-.2532.82972.2877.98388.195.05914.3908-.03563.4828-.15412.1038-.11868.1495-.34386.173-.53345.0802-.79409-.2995-1.48169-.9089-1.87298-.3452-.21326-1.3005-.42671-1.5875-.05914z"
        fill="#014099" />
</svg>