<svg width="16" height="16" viewBox="0 0 16 16" fill="none" xmlns="http://www.w3.org/2000/svg">
    <path fill-rule="evenodd" clip-rule="evenodd"
        d="M10.7059 1v.01179c.0007.21311.0638 3.29417 3.3356 3.48636 0 2.86634.0015 0 .0015 2.38061-.2458.0144-2.1536-.12183-3.3408-1.16828l-.0037 4.63442c.0294 2.0986-1.15268 4.1565-3.36568 4.5713-.62004.116-1.17831.129-2.11548-.0733-5.39885-1.596-3.60484-9.50941 1.8161-8.66254 0 2.55477.00149-.00071.00149 2.55477-2.23943-.3256-2.98858 1.51547-2.39351 2.83377.54161 1.2002 2.77137 1.4605 3.54914-.2327.08805-.3314.1321-.7092.1321-1.1334V1h2.38324z"
        fill="#014099" />
</svg>