<svg width="16" height="16" viewBox="0 0 16 16" fill="none" xmlns="http://www.w3.org/2000/svg">
    <path
        d="M15 3.42404c-.0271-.65218-.3048-1.26877-.7752-1.72127-.4705-.45251-1.0974-.70602-1.7501-.707714H3.52467c-.67091 0-1.31433.266514-1.78873.740914-.4744.4744-.740914 1.11782-.740914 1.78873v.74401L15 3.42404zM.995026 12.676c.050774.6351.339684 1.2274.808804 1.6584.46913.431 1.0838.6687 1.72084.6656h8.94563c.6702 0 1.3129-.2659 1.7872-.7394.4743-.4734.7413-1.1157.7425-1.7859v-.6477l-14.004974.849zM8.75026 7.82246c-.07878.03501-.24509 0-.31949.03501a.945542.945542 0 0 0-.23196 0c-.02399.23773-.01663.47757.02188.71338l.74839-.03501c.07955-.03649.15699-.0774.23196-.12255.33262-.14442.6346-.30635.94536-.46391.2797-.10366.548-.23564.8009-.39389.2245.04596.4412.12408.6433.23196.2714.10504.5296.15318.8009.26697.1982.09398.4013.17725.6084.24946l.7834-.05252v-.02188c.0332-.23664.0332-.47674 0-.71338l-.534.04377c-.2128-.07215-.4217-.15542-.6258-.24946-.2214-.04995-.4359-.12636-.639-.22758l1.7506-.87531c.0399-.41628.0399-.83542 0-1.25169-.8753.07002-1.7068.10503-2.6259.16193-.3238.0551-.6534.06687-.9803.03501l-.83595-.41139c-.23634.39388-.50768.77464-.74839 1.15978-.0925.2068-.21328.39975-.35888.57333.03939.10941.17506.10066.28448.14005.20481.05554.40293.13332.59083.23195.12254-.02188.14005-.15755.19694-.24946.14443-.22758.31949-.46391.46392-.69587.32775.01622.65625-.00138.98035-.05252h.3545c.1751-.02626.4158 0 .5908-.05252.3108-.07002.6959.03939.9804-.05689v.02188c.0105.04016.0105.08238 0 .12254-.0613.11817-.2933.15318-.4114.21445l-.8534.43766c-.1201.03972-.2347.09411-.3414.16193-.2731-.06008-.5367-.15727-.7834-.28885-.171-.02735-.33654-.08202-.49019-.16193-.14005.03501-.35013.50767-.46392.62584.02626.11379.57771.27572.71338.31949v.02188c-.41577.19695-.81404.43766-1.23418.60834h-.01313zM7.25348 9.17919c.10264.0068.20573-.00056.30636-.02188a2.7313829 2.7313829 0 0 0 0-.72213l-1.31297.07002v-2.127a4.2662567 4.2662567 0 0 0 0-.98034l-.48141.03501c-.09629 0-.23634-.02626-.30199 0a1.3123212 1.3123212 0 0 0-.30635 0V7.573a4.267382 4.267382 0 0 1 0 .98034l-3.15987.17944v.71338c.41847.01272.83726-.01071 1.25169-.07003.19695-.03939.43766.04815.58646-.03501h.35888a1.103056 1.103056 0 0 0-.19695.24946c-.14005.19695-.2976.38951-.43765.59082-.08753.1182-.23633.2276-.28885.3764-.17506.0438-.87531 0-.99785.0875a.9475176.9475176 0 0 0-.23196 0v.7134c.32247.0083.64497-.0151.96284-.07.12254-.0263.2976 0 .39389 0 .18381-.0394.51205.0437.64335-.035.13129-.0788.36763-.4377.46391-.5909.34137-.4726.79216-.93654 1.10727-1.42672.35145.00561.70277-.01781 1.05037-.07002.17943-.04377.50768.03939.63897-.03939l-.04814.05252z"
        fill="#6C7073" />
    <path
        d="M3.29124 6.9123c.09266.02866.19181.02866.28447 0l.91908-.03501c0-.17068-.16631-.24508-.24947-.3545-.18819-.27572-.43327-.49455-.59521-.76589l-.8753.05252h-.34137c.05251.14442.20132.24071.28885.3545.16856.25933.3589.50384.56895.73088v.0175zm.03939 1.39174c.11739.01912.2371.01912.3545 0l.80966-.05689c-.03064-.12692-.14881-.19257-.21445-.28448-.14005-.18819-.27573-.36325-.4114-.55144-.06565-.08753-.17506-.15756-.21445-.27135-.25009-.02138-.50193-.00812-.74839.03939-.10503 0-.24946-.03063-.32386 0a.538844.538844 0 0 0-.15756 0c.17069.27135.43766.49455.60397.74839.07877.10504.15755.29323.28885.34137l.01313.03501zm10.45097.87532v-.70025c-.8141 0-1.4618.11379-2.2452.10941v-.34137c-.2325-.01132-.4656.00041-.6959.03502-.1094.02626-.2757-.03064-.3588 0h-.035c.0182.11892.0182.23995 0 .35887l-2.22771.12255v.71337c.25059.00744.5013-.01016.74839-.05252.22321-.04814.46392 0 .66086-.03501s.52076.04814.65646-.03501c.0596-.00779.1199-.00779.1795 0v1.05478c-.0203.1657-.0203.3332 0 .4989.2801-.0263.7221-.0525 1.0547-.07V9.76581c-.0001-.15349.019-.3064.0569-.45516.744 0 1.4705-.07877 2.1883-.12254l.0175-.00875zm-6.93684.22758l-1.1948.05689c.05262.18529.13703.36004.24947.51643.20132.39394.40701.77464.58645 1.17734l.74839-.0351c.14677.0175.29553.0056.43766-.035.03938-.105-.16194-.3457-.21446-.4376-.21445-.4158-.39826-.84032-.62146-1.23421l.00875-.00875z"
        fill="#6C7073" />
    <path
        d="M13.2088 9.40667h-.07c-.0526.03501-.1839 0-.267.02188-.2457-.01233-.492.01126-.7309.07002.1156.14809.2126.30977.2889.48142.1619.26701.3457.52521.4989.80531.2928.0063.5857-.0127.8753-.0569h.2495c-.2443-.4596-.5116-.9066-.801-1.33924l-.0437.01751zm-3.22553.17943c-.06565.04377-.19257 0-.28447.02189-.21008.04376-.6171 0-.75277.07002-.13567.07003-.11817.22321-.17506.31949-.1313.2145-.25822.4377-.37638.6784-.06127.1094-.08753.2582-.17944.3413.00188.0175.00188.0351 0 .0526l1.09413-.0526c.17069-.3326.35888-.674.53394-1.0022.04737-.12406.10751-.24286.17948-.35449 0-.0569 0-.04377-.03505-.07441h-.00438z"
        fill="#6C7073" />
</svg>