<svg id="图层_1" data-name="图层 1" xmlns="http://www.w3.org/2000/svg" xmlns:xlink="http://www.w3.org/1999/xlink"
    viewBox="0 0 817.17 817.14" width="12" height="12" fill="#014099">
    <defs>
        <style>
            .cls-1 {
                fill: none;
            }

            .cls-2 {
                clip-path: url(#clip-path);
            }
        </style>
        <clipPath id="clip-path" transform="translate(-1008 -1009.43)">
            <rect class="cls-1" x="1008" y="1008.65" width="817.92" height="818.88" />
        </clipPath>
    </defs>
    <g class="cls-2">
        <path
            d="M1799,1363l-309.82-322.54a100.34,100.34,0,0,0-145.13,0L1034.19,1363c-32,33.29-27.85,62.07-22.57,74.09,3.77,8.53,16.49,32,53.12,32h45.41V1717.2c0,56.33,40.45,109.37,97.94,109.37H1340V1564c0-28.15-4.26-43.84,24.49-43.84H1468.7c28.75,0,24.49,15.69,24.49,43.84v262.59h131.89c57.48,0,97.92-53,97.92-109.37V1469.07h45.42c36.62,0,49.35-23.44,53.12-32,5.29-12,9.4-40.8-22.57-74.09Zm0,0"
            transform="translate(-1008 -1009.43)" />
    </g>
</svg>