<svg width="16" height="16" viewBox="0 0 16 16" fill="none" xmlns="http://www.w3.org/2000/svg">
    <g clip-path="url(#clip0_167_42)">
        <path fill-rule="evenodd" clip-rule="evenodd"
            d="M14.683 7.98139c1.215 1.57449 1.0723 3.66461-.4111 4.98731-.4292.3828-.5837.6979-.3082 1.2025.0507.0931.0566.2111.0861.3288-.4409-.1973-.8454-.4934-1.276-.5386-.429-.045-.8799.2038-1.3286.2498-1.3671.1406-2.59174-.2423-3.6015-1.1809-1.92062-1.7855-1.64614-4.52316.57582-5.98639 1.97488-1.3004 4.87108-.86689 6.26348.93748zm-4.6277-4.4158c.4879.64043.7871 1.35924.8662 2.20938-1.39242.07312-2.60323.49738-3.5862 1.45589-.99326.9684-1.44665 2.15505-1.32266 3.62604-.5443-.0677-1.03996-.1423-1.53848-.1845-.17224-.0145-.37656.0062-.52234.0889-.48415.2746-.94823.5845-1.49829.9301.10093-.4588.16631-.8606.2819-1.247.08505-.2841.04566-.4422-.21467-.62712C.849258 8.63114.144682 6.85602.671964 5.02847 1.1598 3.33779 2.35778 2.31246 3.98563 1.77798c2.22173-.72945 4.71863.01462 6.06967 1.78761zM9.03461 8.57303c-.29104-.00132-.53476.24965-.52464.54021.00955.27774.24228.50235.5209.50264.28069.00029.51187-.22051.52245-.49911.01127-.29507-.22485-.54252-.51871-.54374zm3.23169.00116c-.2723-.00185-.5038.22225-.5148.49883-.0118.2957.2168.53858.5081.53934.2816.00098.5042-.21317.5144-.4949.011-.2964-.2179-.54124-.5077-.54327zM7.8566 4.55982c-.34354.00636-.63378.30045-.62774.63604.00626.34785.2911.61998.6443.6157.35419-.00428.6228-.2793.61953-.63448-.00299-.34866-.2865-.62367-.63609-.61726zm-3.96114.00023c-.35045-.01034-.63867.25883-.64891.60593-.01035.35178.2574.63367.61032.64269.34993.0089.64328-.26063.65622-.60316.01282-.33426-.27535-.6354-.61763-.64546z"
            fill="#6C7073" />
    </g>
    <defs>
        <clipPath id="clip0_167_42">
            <path fill="#fff" d="M0 0h16v16H0z" />
        </clipPath>
    </defs>
</svg>