<svg id="图层_1" data-name="图层 1" xmlns="http://www.w3.org/2000/svg" xmlns:xlink="http://www.w3.org/1999/xlink"
    viewBox="0 0 820.02 717.62" width="17" height="15">
    <defs>
        <style>
            .cls-1 {
                fill: none;
            }

            .cls-2 {
                clip-path: url(#clip-path);
            }

            .cls-3 {
                fill: #014099;
            }
        </style>
        <clipPath id="clip-path" transform="translate(-548.88 -181.22)">
            <rect class="cls-1" x="549" y="181" width="820.8" height="718.8" />
        </clipPath>
    </defs>
    <g class="cls-2">
        <path class="cls-3"
            d="M1112.49,434.35q17.21,20.49,36.86,41.78,16.39,18.84,36.46,41.78t41.37,46.7q27,31.13,44.65,55.7t27.85,45.06q10.24,20.48,13.92,37.68a163.67,163.67,0,0,1,3.69,34.41v53.25q0,24.57-8.19,44.23a104.09,104.09,0,0,1-22.53,34,102.15,102.15,0,0,1-32.77,22.12,99.17,99.17,0,0,1-38.91,7.78H709.44a121.43,121.43,0,0,1-42.18-7.37A108.57,108.57,0,0,1,632,870.58a101.69,101.69,0,0,1-24.17-32.36q-9-18.84-9-42.6V732.54a187.47,187.47,0,0,1,3.69-37.68,153,153,0,0,1,13.52-37.68q9.83-19.66,27-42.19t43.42-49.57q21.29-22.92,43.82-46.28T770.88,477q21.3-22.11,41-42.6Zm-154,310.48a99.59,99.59,0,0,0,40.14-8.19,105.23,105.23,0,0,0,32.77-22.12,104,104,0,0,0,22.12-33.18,102.5,102.5,0,0,0,8.19-40.55,99.59,99.59,0,0,0-8.19-40.14,103.88,103.88,0,0,0-54.89-54.89,99.59,99.59,0,0,0-40.14-8.19,102.5,102.5,0,0,0-40.55,8.19,104,104,0,0,0-33.18,22.13,105.24,105.24,0,0,0-22.12,32.76,99.59,99.59,0,0,0-8.19,40.14,102.5,102.5,0,0,0,8.19,40.55,101.67,101.67,0,0,0,55.3,55.3,102.5,102.5,0,0,0,40.55,8.19Zm410.42-409.6v51.61a48.37,48.37,0,0,1-15.16,36.05,50.38,50.38,0,0,1-36.45,14.74h-102.4q-21.3,0-36-14.74t-14.75-36.05V335.23H753.68v51.61q0,21.3-14.75,36.05t-36,14.74H600.49A50.38,50.38,0,0,1,564,422.89a48.37,48.37,0,0,1-15.16-36.05V333.59a28.41,28.41,0,0,1,4.91-16.79,59.84,59.84,0,0,1,12.29-12.7,98.66,98.66,0,0,1,16.39-10.24,202.34,202.34,0,0,0,18-10.24q9-4.9,40.55-21.71T720.5,227.1q47.93-18,109-31.95T959.3,181.22q78.65,0,140.49,13.93t107.32,31.95q45.47,18,72.91,34.81t37.27,21.71q9.84,5.73,18.84,10.24a98.66,98.66,0,0,1,16.39,10.24,51.66,51.66,0,0,1,11.87,12.7q4.52,7,4.51,16.79Zm0,0"
            transform="translate(-548.88 -181.22)" />
    </g>
</svg>