<svg id="图层_1" data-name="图层 1" xmlns="http://www.w3.org/2000/svg" viewBox="0 0 716.8 668.24" width="15" height="14">
    <defs>
        <style>
            .cls-1 {
                fill: #014099;

            }
        </style>
    </defs>
    <path class="cls-1"
        d="M802.44,450.48h313.92a29.44,29.44,0,1,1,0,58.88H802.44a29.44,29.44,0,0,1,0-58.88Zm0-117.76h313.92a29.44,29.44,0,1,1,0,58.88H802.44a29.44,29.44,0,0,1,0-58.88Zm0,0"
        transform="translate(-601 -206)" />
    <path class="cls-1"
        d="M960.92,652.8,601,485.36v290a98.89,98.89,0,0,0,98.88,98.88h519a98.89,98.89,0,0,0,98.88-98.88V478.72l-6.32,2.08Zm0,0"
        transform="translate(-601 -206)" />
    <path class="cls-1"
        d="M712.28,315.84a36.63,36.63,0,0,1,36.64-36.64h421a36.63,36.63,0,0,1,36.64,36.64V475.12L1279.8,441V279.2a73.23,73.23,0,0,0-73.2-73.2H712.28a73.18,73.18,0,0,0-73.2,73.2V446.56l73.2,32.56Zm0,0"
        transform="translate(-601 -206)" />
</svg>