<svg id="图层_1" data-name="图层 1" xmlns="http://www.w3.org/2000/svg" xmlns:xlink="http://www.w3.org/1999/xlink"
    viewBox="0 0 819.2 819.2" width="34" height="35" fill="#CCCCCC">
    <defs>
        <style>
            .cls-1 {
                fill: none;
            }

            .cls-2 {
                clip-path: url(#clip-path);
            }
        </style>
        <clipPath id="clip-path" transform="translate(-549.88 -130.52)">
            <rect class="cls-1" x="550" y="130" width="819.84" height="820.72" />
        </clipPath>
    </defs>
    <g class="cls-2">
        <path
            d="M1312.6,190.24l-3.23-3.24c-75.31-75.31-198.55-75.31-273.86,0L861,361.51c-75.3,75.31-75.3,198.54,0,273.85l3.23,3.22A191,191,0,0,0,884,655.75l63.88-63.88a104.49,104.49,0,0,1-20.9-16l-3.23-3.24a105,105,0,0,1,0-148.31l174.5-174.49a105,105,0,0,1,148.31,0l3.23,3.22a105,105,0,0,1,0,148.32l-78.95,78.95a270.81,270.81,0,0,1,19.64,105.9L1312.6,464.09c75.31-75.31,75.31-198.54,0-273.85ZM1054.71,441.67a191.83,191.83,0,0,0-19.79-17.15L971,488.38a104.77,104.77,0,0,1,20.9,16.05l3.23,3.24a105,105,0,0,1,0,148.31l-174.5,174.5a105,105,0,0,1-148.31,0l-3.24-3.23a105,105,0,0,1,0-148.31l79-79a270.89,270.89,0,0,1-19.64-105.91L606.36,616.16c-75.31,75.3-75.31,198.54,0,273.86l3.22,3.23c75.32,75.3,198.56,75.3,273.87,0l174.48-174.5c75.31-75.31,75.31-198.56,0-273.86Zm0,0"
            transform="translate(-549.88 -130.52)" />
    </g>
</svg>