<svg id="图层_1" data-name="图层 1" xmlns="http://www.w3.org/2000/svg" xmlns:xlink="http://www.w3.org/1999/xlink"
    viewBox="0 0 666.37 658.64" width="13" height="12">
    <defs>
        <style>
            .cls-1 {
                fill: none;
            }


            .cls-2 {
                clip-path: url(#clip-path);
            }


            .cls-3 {
                fill: #fff;
            }
        </style>
        <clipPath id="clip-path" transform="translate(-625.88 -211.16)">
            <rect class="cls-1" x="626" y="211" width="666.88" height="659.76" />
        </clipPath>
    </defs>
    <g class="cls-2">
        <path class="cls-3"
            d="M930,819.48c-167.76,0-304.16-136.48-304.16-304.16S762.36,211.16,930,211.16,1234.2,347.64,1234.2,515.32,1097.72,819.48,930,819.48Zm0-541.68c-131,0-237.52,106.56-237.52,237.52S799.08,752.84,930,752.84s237.52-106.56,237.52-237.52S1061,277.8,930,277.8Zm0,0"
            transform="translate(-625.88 -211.16)" />
        <path class="cls-3"
            d="M1258.84,869.8a33.27,33.27,0,0,1-22.88-9.12L1098.52,731a33.33,33.33,0,1,1,45.76-48.48L1281.8,812.28a33.28,33.28,0,0,1-23,57.52Zm0,0"
            transform="translate(-625.88 -211.16)" />
    </g>
</svg>