<svg id="图层_1" data-name="图层 1" xmlns="http://www.w3.org/2000/svg" xmlns:xlink="http://www.w3.org/1999/xlink"
    viewBox="0 0 713.91 714.93" width="18" height="18">
    <defs>
        <style>
            .cls-1 {
                fill: none;
            }

            .cls-2 {
                clip-path: url(#clip-path);
            }

            .cls-3 {
                fill: #fff;
            }
        </style>
        <clipPath id="clip-path" transform="translate(-602.88 -183.03)">
            <rect class="cls-1" x="603" y="183" width="713.88" height="715.92" />
        </clipPath>
    </defs>
    <g class="cls-2">
        <path class="cls-3"
            d="M952.77,479.78l.13-.17c-.14-.7-.27-1.32-.32-1.76.07.64.14,1.29.19,1.93Zm137.1,149.91h0s-.08,0-.09,0,.07,0,.09,0Zm3.51.45c-.85-.14-2.75.11-3.51-.45-.47,1.61.24,2.22,3.51.45ZM959.84,183c-197.15,0-357,160-357,357.47S762.69,898,959.84,898s356.95-160,356.95-357.46S1157,183,959.84,183Zm228,139.64c-12.3.38-20.86.4-30.74,7.23-4,2.76-6.69,6.4-11.74,7.82-4.53,1.28-9.42.16-13.91,1.69-16.22,5.51-13.65,40.3-35,35-10-2.47-17.12-14.34-22.17-22.1-4.45-6.83-12.55-12.47-7.08-21-2.5.64-5.16-.09-7.62.38,3.43-7.53,14.91-6.87,16.82-10.72,4.76-9.64-13.1-10.65-18.16-12,6.1-6.5,9.18,2.19,15.2.72,5.78-1.43-3.05-9.05-6.52-9.91-1.24-.31-21.6,5.63-9.82-4.93L1013.45,267c-2.44,10.33,19.36,16.2,26.48,19.84-1.1,4.26-7.73,10.48-12.8,8.65-4.78-1.71-2.84-9.64-10.05-8.84-5.16,12,10.89,8.49,12.38,15.84,1.69,8.37-6.06,4.82-9.05,4.68-.71,0-6.27-5.8-6.57-1.44-.36,5.18,8.87,3.16,9.52,8.4-10.75.43-16.24-3.46-25-9.28-10.21-6.79-15.45-6.18-28-6.18,3.74-1.53,8.9-2.68,12.1-5.16,1.75-1.35,8.61-8,9.06-9.52,1.94-6.43-.1-5.94-6.25-10.16-5.46-3.75-12.09-10.46-18.71-11.79-24-4.79-7.4,21.69-25.6,25.34l.91,0h-1a.61.61,0,0,0,.13,0c-4.22-.15-12.11-1.18-14.83,1.05-1.91,1.57-2.07,7.86-4.21,10.14-3.82,4.07-9.5,4.88-14,7.82s-14.23,10.21-16.84,15.2c-9.61,18.39,21.65,24.09,33.5,29.47,5.36,2.42,21,5.75,23.92,9.81,3.91,5.45-3.37,10.55,4.79,14.38,2.61,1.22,8,1.47,10.23-1.06,3.65-4.11-1.48-5-2.36-9.8-1.69-9.15,1.1-5.52,5.7-8.92,9.37-6.93,7.26-7.35,3.89-18.39-1.57-5.14-7.47-19.49-2.28-23.28,6.77-4.95,21.22,2.68,26.42,3.32,6,.74,9.48,9.13,12.77,12.56,2.19,2.28,6.11,7.11,9.92,6.59,6.08-.83,3.54-6.15,7.06-8.6,9.44-6.55,11.93,2.36,15.69,11.26,3.54,8.37,6.89,11.48,13.19,16.85,2.92,2.5,15.75,11.41,14.54,16.91-.82,3.7-15.47,9.32-19.39,10.56-14.32,4.54-41.18-7.43-44.07,15.3,5.56-2.07,21.36-15,26.1-8.87,2.16,2.78-1.71,6.83-.8,9.59,2.71,8.28,9.08,5.4,15.76,4.06a11.86,11.86,0,0,1-1.41.75c9.13-4.7,8.18-3.72,12.37-11.34,1.37-2.5,3.41-8.52,5.34-10.3,6.63-6.12,7.66-1.91,11.77,2.81,1.08,1.24,11.25,15.9,7.63,15.17-11.83-2.37-23.19-2-33,4.42-5.65,3.74-11,8.79-17.75,11.27-1.61.59-13.6,1.73-12.18-.32,2.07-3,9.19-5,12-8.17-7.78-3.22-14.27,3.87-20.39,8-6.48,3.07-8,8.8-13.51,13.82-2.42,2.19-7,2.56-9.35,5.44s-2.58,7.2-4.76,9.85c-1.52,1.86-5.44.74-7,3.54-2.08,3.66,1.9,7.06,1,9.7-1.6,4.79-10.7,8.85-14.2,12.31l1.39-1.39c-3.51,3.69-8,6.4-10.69,10.66,1.26,6,5.23,20.38,4.12,23.68-3.65,10.87-10.73-5.91-13.61-10.24-9.87-14.9-29.6-4.93-43.08-3.69-17.24,1.57-34.13,24-23.49,42.17,5.1,8.72,13.69,12.09,23.54,10.08,8.77-1.8,11.4-14.08,19.65-14.31,15.17-.4.34,14.89-1,20.5-1.22,5.2,1.89,5.68,7.23,7,3.94.94,9.53-1.69,13,.57,2.16,1.42,2,9.22,5,6.76-5.84,4.84-4.47,16.33,1.51,20.48,6.63,4.6,14.44.34,21.39,2.11,13.11,3.35,6.85-1,18.36-8,7.77-4.7,9.05.88,14.36.9,3.61,0,5.91-5.2,12-3.69,4.93,1.25,6.87,5.06,12.76,5.93,2.41.36,4.9-.91,7.2-.65,10.88,1.21,19.21,8.17,27.78,14.46,7.06,5.18,11.74,4.14,20,6.5,6,1.72,17.15,10.46,16.58,18.12-.1,1.38-5.37,8.28-6.27,11.38,1.54,1.07,12.27-1.33,15.41-1.55-1,1.2-8.34,6.34-8.34,3.61,0,1.4,5.17,4.28,6.43,5.17,3.81-12.39,10.07-4.42,17.6-1.35,6.41,2.61,14.3,2.75,21.13,4.38,5.79,1.38,18.58,5.3,22.88,10,5.17,5.71,1.6,15-2.23,20.68-5,7.45-12.56,10.31-15.68,19.08-2.47,6.94-.61,14-2,21.66-1.91,10.43-3.44,6.78-10.15,13.14-5.63,5.36-.09,4.43-7.77,7.84s-14.51,2.41-19.85,10.89a14.82,14.82,0,0,0,.54-1.63c-2.26,3.16-3.38,9.63-4.45,11.75-2.7,5.42-6.41,8.83-10.67,13.34-1.63,1.73-16.64,22.26-17.5,20.61-1.12-2.14-13,2.15-13.51-.91.47,2.58-.12,1.72,2.82,3.2-2.72,16.87-9.85,19.39-26.39,19.55,1.42,8.11-6,6.5-9.45,10.86-2,2.54-3,9.7-4.37,13-.87,2.07-7.33,10.37-7.33,12s2.17,3.74,4.21,5.86a316.47,316.47,0,0,1-35.63,4.91c2.26-2.86,2.8-5.37-4.4-5.71,1.93-5.24,6.45-8.23,8.37-13.31.91-2.4.15-3.35.93-5.72,2.63-8.2,1.49-5.11,0-11.47-3.48-14.93,1.24-19,5.3-32.68,4.17-14,3.78-32.24,6.46-47.37,1.27-7.23,3.34-22.29.83-29.14-2.83-7.7-15.27-13.77-21-18.95-8.06-7.36-12.35-15.32-18.34-24.41-3-4.63-6.51-9.16-8.88-14.18-5.07-10.74,0-4.35.86-10.69.82-6.13-.73-11.6,1.7-18,2.68-7.11,9.39-11.54,11.59-18.71,2-6.38.48-14.4-6.07-16.53-3.65-1.19-7.67,1.56-11.34,1-5.11-.84-10.89-4.66-14.9-7.71C931.1,577.91,929,571,923,566.91c-5-3.37-8.55-1.35-13.89-2.93-5.57-1.64-9-8.52-13.5-10.68-6.74-3.23-10.54,1.41-17.65.47-6-.79-15.28-7.51-20.94-10-11.5-5.16-18.5-10.85-23.1-22.54-3.94-10-9.68-14.69-16.44-23s-9-15.66-19.55-17.92c-1.24-.27,2.59,8.88,3,9.62,3.77,7,9.44,13.38,14,19.89,6.7,9.6,3.84,11.4-3,2.12-7.8-10.61-16.84-21.17-23.61-32.4-2.55-4.25-2.07-7-6.28-11s-9.41-5.79-13.52-9.5c-14.76-13.3-17.45-31.05-15.76-50,.54-6.18,2.77-11.13,1.79-17.06-.81-4.94-3.72-9-7.35-12.65-1.17-1.86-4.11-6.46-4.28-6.76-3.35-5.57-6-11-11.28-15.63-3.06-2.64-11-8.8-18.41-14a317.55,317.55,0,0,1,127.4-95.41,18.85,18.85,0,0,0,3.1,7.47c4.13,6.12,8.06,5.64,16.12,7.34-.86,9.36-11.79,9.43-19.19,8.42-8.83-1.21-18.12-4.15-25.77,3.6,4.22,2.54,15.82,12.45,14.28,2.1,8.46-.43,16.64-.68,24.91.33,3.32.41,14.43,4.14,17.44,2.44,1.27-.72,2.61-7,4-8.88-2.36,0-4.89-1.17-7.24-.95,5.48-7,10.94-1.51,17.91,1.72-7.67,4.67-3.12,15.87,4.39,6.77,6.17-7.48-1.51-12.91-9.34-17.27,7.9-9.89,12.76-10.78,20.19.38,1.23-6.88,6.78-4.13,12.58-3.62v-1.72c-2.56.06-5.28-1.41-7.81-1.15,5.91-9.43,2.14-11.59,10.58-14.67,6.73-2.45,25.91-.17,28.28-6.5-13.43,2.62-29.65,3.24-41.76,9.35-5.23,2.64-11.45,11-16.67,5.55s3.83-14.47,8.52-17.19H894A312.91,312.91,0,0,1,1002.83,227c-4.87,2.56-1.27,4.29-4.81,6.91-6.78,5-18.8,9.15-26.86,12.3,10.25,0,35.05,9.62,39.82-4.77l-9.91-1.53a87,87,0,0,1,20.29-9.85,315.76,315.76,0,0,1,167.42,92.59c-.32,0-.63,0-.94,0Zm57.77,125.51c.59-1.26,2-1.68,2.53-2.71,1.19-2.18.93-3.66,2.4-5.53s3.69-2.51,5.44-4.09a6.55,6.55,0,0,0,1.43-1.83,314.34,314.34,0,0,1,12.51,45.55c-.09.11-.14.28-.26.37-.76.61-5.77,1.36-6.79,1.39-3.63.14-6.32-2.26-8.92-4.53a42.12,42.12,0,0,1-7.64-8.36c-2-3.19-.77-6.46-.63-10.09.12-3.06-1.36-7.42-.07-10.17Zm4.09,163.89c-6.13-5.33-13.37-12.48-17.73-19.39-4.65-7.37-1.78-14.95-1.44-23.39.28-7.09-3.18-17.19-.17-23.58,1.38-2.91,4.55-3.88,5.86-6.27,2.77-5.06,2.15-8.48,5.56-12.83,3.65-4.68,8.55-5.83,12.62-9.49,4.26-3.84,4.14-6.87,6.83-11.8,2-3.6,6.62-9.6,11-12.74a316.87,316.87,0,0,1-7,129.4c-5.9-1.53-10.77-5.79-15.48-9.91Zm0,0"
            transform="translate(-602.88 -183.03)" />
    </g>
</svg>