<svg id="图层_1" data-name="图层 1" xmlns="http://www.w3.org/2000/svg" xmlns:xlink="http://www.w3.org/1999/xlink"
    viewBox="0 0 655.36 720.89" width="37" height="41">
    <defs>
        <style>
            .cls-1 {
                fill: none;
            }

            .cls-2 {
                clip-path: url(#clip-path);
            }

            .cls-3 {
                fill: #014099;
            }
        </style>
        <clipPath id="clip-path" transform="translate(-631.88 -180.06)">
            <rect class="cls-1" x="632" y="180" width="655.88" height="721.92" />
        </clipPath>
    </defs>
    <g class="cls-2">
        <path class="cls-3"
            d="M1024.57,819l1.9.1c10,1.1,17,10.65,14.47,20.4l-1,3.5C1029.42,876.58,997.41,901,959.56,901l-3.9-.08c-37.42-1.67-68.47-27.18-77.5-61.34l-.36-1.82C876.39,828,884.21,819,894.55,819Zm-65-639a24.57,24.57,0,0,1,24.57,24.58v25.79c126,12.66,221.19,123.44,221.19,251.49V655.2l.09,2.46A32.78,32.78,0,0,0,1238.09,688h5.84l2.79.08C1267,689.33,1285,704.32,1287,724.7l.17,2.62a41,41,0,0,1-40.91,42.57H675.18l-2.78-.08c-20.32-1.28-38.28-16.27-40.31-36.66l-.18-2.62A41,41,0,0,1,672.84,688H681l2.46-.09A32.75,32.75,0,0,0,713.8,655.2V475c0-127.43,97-232.2,221.18-244.54V204.64a24.59,24.59,0,0,1,24.58-24.58Zm0,0"
            transform="translate(-631.88 -180.06)" />
    </g>
</svg>