<svg id="图层_1" data-name="图层 1" xmlns="http://www.w3.org/2000/svg" xmlns:xlink="http://www.w3.org/1999/xlink"
    viewBox="0 0 776.72 721.24" width="13" height="12" fill="#ccc">
    <defs>
        <style>
            .cls-1 {
                fill: none;
            }

            .cls-2 {
                clip-path: url(#clip-path);
            }
        </style>
        <clipPath id="clip-path" transform="translate(-570.88 -179.68)">
            <rect class="cls-1" x="571" y="179" width="776.88" height="722.88" />
        </clipPath>
    </defs>
    <g class="cls-2">
        <path
            d="M637.46,401.6H1281V335a55.48,55.48,0,0,0-55.48-55.48h-22.2a33.29,33.29,0,0,1,0-66.57h22.2a122.06,122.06,0,0,1,122,122V778.87a122,122,0,0,1-122,122H692.93a122.05,122.05,0,0,1-122-122V335a122.06,122.06,0,0,1,122-122h22.2a33.29,33.29,0,1,1,0,66.57h-22.2A55.47,55.47,0,0,0,637.46,335ZM1281,468.17H637.46v310.7a55.47,55.47,0,0,0,55.47,55.48h532.62A55.48,55.48,0,0,0,1281,778.87ZM815,179.68A33.28,33.28,0,0,1,848.28,213v66.57a33.29,33.29,0,0,1-66.58,0V213A33.29,33.29,0,0,1,815,179.68Zm288.5,0A33.28,33.28,0,0,1,1136.78,213v66.57a33.29,33.29,0,0,1-66.58,0V213a33.29,33.29,0,0,1,33.29-33.29ZM726.22,534.75H970.34a33.29,33.29,0,1,1,0,66.58H726.22a33.29,33.29,0,0,1,0-66.58Zm0,155.35h466a33.29,33.29,0,1,1,0,66.57h-466a33.29,33.29,0,0,1,0-66.57Zm377.27-155.35h66.58a33.29,33.29,0,1,1,0,66.58h-66.58a33.29,33.29,0,1,1,0-66.58Zm0,0"
            transform="translate(-570.88 -179.68)" />
    </g>
    <path d="M910.48,261.69H1008q29.25,0,29.25,29.25T1008,320.2H910.48q-29.26,0-29.26-29.26t29.26-29.25Zm0,0"
        transform="translate(-570.88 -179.68)" />
</svg>