<svg id="图层_1" data-name="图层 1" xmlns="http://www.w3.org/2000/svg" viewBox="0 0 604.16 737.28" width="18" height="22"
    fill="#014099">
    <path
        d="M1008.57,721.55H807.19c-10.25,0-17.07,6.82-17.07,17.06s6.82,17.07,17.07,17.07h201.38c10.24,0,17.07-6.83,17.07-17.07s-10.24-17.06-17.07-17.06Zm99-133.12H807.19c-10.25,0-17.07,6.82-17.07,17.06s6.82,17.07,17.07,17.07h300.37c10.24,0,17.07-6.83,17.07-17.07s-6.83-17.06-17.07-17.06ZM807.19,352.91H889.1c10.25,0,17.07-6.83,17.07-17.07s-6.82-17.07-17.07-17.07H807.19c-10.25,0-17.07,6.83-17.07,17.07s6.82,17.07,17.07,17.07ZM1090.49,172H725.27A68.47,68.47,0,0,0,657,240.27V841a68.47,68.47,0,0,0,68.27,68.27H1192.9A68.47,68.47,0,0,0,1261.16,841V352.91Zm133.12,665.6c0,17.07-13.65,34.13-34.13,34.13H725.27c-17.07,0-34.14-13.65-34.14-34.13V236.85c0-17.06,13.66-34.13,34.14-34.13h300.37V370c0,17.07,13.65,34.14,34.13,34.14H1227V837.6ZM1056.36,370V202.72h17.07L1223.61,370ZM790.12,469c0,10.24,6.82,17.07,17.07,17.07h300.37c10.24,0,17.07-6.83,17.07-17.07s-6.83-17.06-17.07-17.06H807.19c-10.25,3.4-17.07,10.23-17.07,17.06Zm0,0"
        transform="translate(-657 -172)" />
</svg>